<svg id="logo" width="184px" height="46px" viewBox="0 0 184 46" version="1.1" xmlns="http://www.w3.org/2000/svg" xmlns:xlink="http://www.w3.org/1999/xlink">
    <g id="Page-1" stroke="none" stroke-width="1" fill="none" fill-rule="evenodd">
        <g id="Artboard" transform="translate(-92.000000, -172.000000)" fill="#FFFFFF" fill-rule="nonzero">
            <g id="logo" transform="translate(92.000000, 172.000000)">
                <g id="logo-mark">
                    <path d="M24.2894737,45.9210526 C16.0151888,46.2031624 8.24579187,41.9498625 4.02506056,34.827447 C-0.195670755,27.7050314 -0.195670755,18.8476001 4.02506056,11.7251846 C8.24579187,4.60276907 16.0151888,0.349469189 24.2894737,0.631578947 C26.0628423,0.630227747 27.8299306,0.842278347 29.5526316,1.26315789 C30.1823163,1.4070673 30.7283882,1.79662998 31.0693915,2.34520044 C31.4103948,2.89377091 31.518053,3.55586105 31.3684211,4.18421053 C31.0095569,5.46994505 29.6865796,6.23094971 28.3947368,5.89473684 C27.0489988,5.5799915 25.6715285,5.42105263 24.2894737,5.42105263 C14.4646187,5.42105263 6.5,13.3856713 6.5,23.2105263 C6.5,33.0353813 14.4646187,41 24.2894737,41 C34.1143287,41 42.0789474,33.0353813 42.0789474,23.2105263 C42.0708777,21.8100609 41.9031273,20.4150837 41.5789474,19.0526316 C41.3956137,18.1970745 41.6826407,17.3086998 42.331908,16.7221497 C42.9811753,16.1355995 43.8940439,15.9399848 44.7266449,16.2089918 C45.5592459,16.4779987 46.1850874,17.1707587 46.3684211,18.0263158 C46.7663745,19.7525449 46.9693987,21.5179728 46.9736842,23.2894737 C46.9667089,29.2987222 44.5728525,35.0590762 40.3187369,39.3033215 C36.0646213,43.5475667 30.2987222,45.9280361 24.2894737,45.9210526 Z" id="Path"></path>
                    <path d="M40.8421053,6.71052632 C40.1692201,6.02582301 39.2494701,5.64015151 38.2894737,5.64015151 C37.3294773,5.64015151 36.4097273,6.02582301 35.7368421,6.71052632 C35.7368421,6.71052632 35.7368421,6.71052632 35.7368421,6.71052632 C35.1918693,7.29531726 34.8583573,8.04571911 34.7894737,8.84210526 L34.7894737,8.84210526 C34.8024902,8.97336229 34.8024902,9.10558508 34.7894737,9.23684211 C34.8024441,9.32408194 34.8024441,9.41276016 34.7894737,9.5 C34.6659802,10.985755 34.0121369,12.3775073 32.9473684,13.4210526 C31.3716737,15.0174322 29.0771563,15.6758589 26.8947368,15.1578947 L26.3947368,15.1578947 C25.7128098,15.0013463 25.0154545,14.9219008 24.3157895,14.9210526 C22.2524201,14.9565147 20.2749162,15.7531395 18.7631579,17.1578947 L18.5,17.3684211 C15.6764096,20.1533601 15.1954046,24.5378144 17.3480486,27.8686808 C19.5006927,31.1995473 23.6957552,32.5619924 27.3947368,31.1315789 C28.5118592,30.7235649 29.5266354,30.0769818 30.3684211,29.2368421 C30.7055673,28.8758342 31.0135504,28.4886554 31.2894737,28.0789474 C32.6653256,26.1220809 33.1349117,23.6687334 32.5789474,21.3421053 L32.5789474,20.8947368 L32.5789474,20.8947368 C32.064103,18.7252246 32.7116295,16.4439388 34.2894737,14.8684211 C35.3775265,13.7868736 36.8130631,13.1250354 38.3421053,13 L38.9210526,13 C39.7575254,12.9155727 40.5387939,12.54354 41.1315789,11.9473684 C41.149973,11.7453464 41.1411218,11.5417684 41.1052632,11.3421053 C42.165437,9.94267853 42.05397,7.98085995 40.8421053,6.71052632 Z" id="Path"></path>
                </g>
                <g id="logo-text" transform="translate(61.157895, 11.157895)">
                    <path d="M26.2631579,7.73684211 C21.6787993,7.73541819 17.9300412,11.3907493 17.8157895,15.9736842 C17.7124049,18.2256283 18.5766495,20.4143525 20.1906773,21.9881553 C21.804705,23.561958 24.0145395,24.3707003 26.2631579,24.2105263 C30.8418699,24.198095 34.5825663,20.5506247 34.7105263,15.9736842 C34.8139109,13.7217401 33.9496662,11.5330159 32.3356385,9.95921316 C30.7216108,8.38541042 28.5117763,7.57666809 26.2631579,7.73684211 Z M29.7894737,15.9736842 C29.8339872,16.926612 29.4785903,17.8548457 28.8090489,18.5343803 C28.1395075,19.2139148 27.2166406,19.5830235 26.2631579,19.5526316 C25.318791,19.5602207 24.4120402,19.1829761 23.7517389,18.5077809 C23.0914377,17.8325856 22.7345093,16.9176469 22.7631579,15.9736842 C22.648138,14.6459616 23.2914577,13.3668204 24.4259358,12.667509 C25.5604138,11.9681976 26.9922178,11.9681976 28.1266958,12.667509 C29.2611738,13.3668204 29.9044936,14.6459616 29.7894737,15.9736842 Z" id="Shape"></path>
                    <path d="M57.3684211,7.73684211 C55.187516,7.74224689 53.0865075,8.5582636 51.4736842,10.0263158 C48.9903444,7.75304242 45.4193065,7.11441413 42.3020033,8.38609379 C39.1847001,9.65777344 37.079355,12.6120381 36.8947368,15.9736842 L36.8947368,23.1052632 C36.8947368,23.5122098 37.2246323,23.8421053 37.6315789,23.8421053 L41.1052632,23.8421053 C41.5122098,23.8421053 41.8421053,23.5122098 41.8421053,23.1052632 L41.8421053,15.9736842 C41.7270854,14.6459616 42.3704051,13.3668204 43.5048831,12.667509 C44.6393612,11.9681976 46.0711651,11.9681976 47.2056432,12.667509 C48.3401212,13.3668204 48.9834409,14.6459616 48.8684211,15.9736842 L48.8684211,23.1052632 C48.8612694,23.2982234 48.932959,23.485784 49.0669916,23.6247807 C49.2010241,23.7637774 49.3858547,23.8422377 49.5789474,23.8421053 L53.0526316,23.8421053 C53.2502484,23.8495706 53.4420359,23.7743392 53.5818718,23.6345034 C53.7217077,23.4946675 53.796939,23.30288 53.7894737,23.1052632 L53.7894737,15.9736842 C53.7373213,15.0232915 54.0865569,14.09466 54.7520497,13.4141561 C55.4175424,12.7336523 56.3381543,12.3637931 57.2894737,12.3947368 C58.2429564,12.3643449 59.1658233,12.7334536 59.8353647,13.4129882 C60.5049061,14.0925227 60.860303,15.0207564 60.8157895,15.9736842 L60.8157895,23.1052632 C60.8083242,23.30288 60.8835555,23.4946675 61.0233914,23.6345034 C61.1632272,23.7743392 61.3550148,23.8495706 61.5526316,23.8421053 L65.0263158,23.8421053 C65.2194085,23.8422377 65.4042391,23.7637774 65.5382716,23.6247807 C65.6723041,23.485784 65.7439937,23.2982234 65.7368421,23.1052632 L65.7368421,15.9736842 C65.8380639,13.7364004 64.9843015,11.5614056 63.3881863,9.99038649 C61.792071,8.41936739 59.6038199,7.60017913 57.3684211,7.73684211 Z" id="Path"></path>
                    <path d="M76.3684211,7.73684211 C71.7840624,7.73541819 68.0353043,11.3907493 67.9210526,15.9736842 C67.8176681,18.2256283 68.6819127,20.4143525 70.2959404,21.9881553 C71.9099682,23.561958 74.1198026,24.3707003 76.3684211,24.2105263 C80.9471331,24.198095 84.6878295,20.5506247 84.8157895,15.9736842 C84.9191741,13.7217401 84.0549294,11.5330159 82.4409017,9.95921316 C80.8268739,8.38541042 78.6170395,7.57666809 76.3684211,7.73684211 L76.3684211,7.73684211 Z M79.9473684,15.9736842 C79.9918819,16.926612 79.6364851,17.8548457 78.9669437,18.5343803 C78.2974023,19.2139148 77.3745353,19.5830235 76.4210526,19.5526316 C75.4766858,19.5602207 74.5699349,19.1829761 73.9096337,18.5077809 C73.2493324,17.8325856 72.892404,16.9176469 72.9210526,15.9736842 C72.8060327,14.6459616 73.4493525,13.3668204 74.5838305,12.667509 C75.7183085,11.9681976 77.1501125,11.9681976 78.2845905,12.667509 C79.4190686,13.3668204 80.0623883,14.6459616 79.9473684,15.9736842 Z" id="Shape"></path>
                    <path d="M98.8157895,8.63157895 C97.8077519,8.0717968 96.6790149,7.76478033 95.5263158,7.73684211 C93.2778153,7.65150479 91.0901929,8.47811356 89.4599715,10.0290536 C87.8297502,11.5799937 86.8951949,13.7237242 86.8684211,15.9736842 C86.7650365,18.2256283 87.6292811,20.4143525 89.2433089,21.9881553 C90.8573366,23.561958 93.067171,24.3707003 95.3157895,24.2105263 C99.8945015,24.198095 103.635198,20.5506247 103.763158,15.9736842 L103.763158,0.710526316 C103.76342,0.328164854 103.461047,0.014161449 103.078947,0 L99.5263158,0 C99.1339029,0 98.8157895,0.318113467 98.8157895,0.710526316 L98.8157895,8.63157895 Z M98.8157895,15.9736842 C98.8598782,16.9219135 98.5080011,17.8458324 97.8443044,18.5244997 C97.1806077,19.203167 96.2647662,19.5755619 95.3157895,19.5526316 C94.3691341,19.559991 93.4598729,19.183558 92.7954431,18.5092113 C92.1310132,17.8348646 91.7680913,16.9201267 91.7894737,15.9736842 C91.752893,15.0229391 92.1108724,14.099348 92.7786463,13.4216074 C93.4464202,12.7438667 94.3646068,12.3722445 95.3157895,12.3947368 C96.2671089,12.3637931 97.1877207,12.7336523 97.8532135,13.4141561 C98.5187063,14.09466 98.8679419,15.0232915 98.8157895,15.9736842 L98.8157895,15.9736842 Z" id="Shape"></path>
                    <path d="M114.157895,7.73684211 C109.573536,7.73541819 105.824778,11.3907493 105.710526,15.9736842 C105.607142,18.2256283 106.471386,20.4143525 108.085414,21.9881553 C109.699442,23.561958 111.909276,24.3707003 114.157895,24.2105263 C118.736607,24.198095 122.477303,20.5506247 122.605263,15.9736842 C122.708648,13.7217401 121.844403,11.5330159 120.230375,9.95921316 C118.616348,8.38541042 116.406513,7.57666809 114.157895,7.73684211 Z M117.684211,15.9736842 C117.728724,16.926612 117.373327,17.8548457 116.703786,18.5343803 C116.034244,19.2139148 115.111377,19.5830235 114.157895,19.5526316 C113.213528,19.5602207 112.306777,19.1829761 111.646476,18.5077809 C110.986175,17.8325856 110.629246,16.9176469 110.657895,15.9736842 C110.542875,14.6459616 111.186195,13.3668204 112.320673,12.667509 C113.455151,11.9681976 114.886955,11.9681976 116.021433,12.667509 C117.155911,13.3668204 117.79923,14.6459616 117.684211,15.9736842 L117.684211,15.9736842 Z" id="Shape"></path>
                    <path d="M17.2631579,7.73684211 L12,7.73684211 C11.8255991,7.70646216 11.6476085,7.76579237 11.5263158,7.89473684 L6.89473684,12.6052632 C6.73657667,12.7667335 6.49602945,12.8156154 6.28739098,12.7286827 C6.0787525,12.64175 5.94408215,12.4365274 5.94736842,12.2105263 L5.94736842,0.578947368 C5.94736842,0.259203566 5.68816486,-3.56196438e-07 5.36842105,-3.56196438e-07 L1.55263158,-3.56196438e-07 C1.40138903,-3.56196438e-07 1.2566849,0.0616503142 1.15225552,0.171052521 C1.04782614,0.280454728 0.992797872,0.427876301 1,0.578947368 L1,23.6842105 C1,23.9894205 1.24742159,24.2368424 1.55263158,24.2368424 L5.36842105,24.2368424 C5.6781636,24.2371622 5.93328937,23.9936331 5.94736842,23.6842105 L5.94736842,20.6315789 C5.94215093,20.4836511 5.99946575,20.340364 6.10526316,20.2368421 L7.60526316,18.7368421 C7.71464042,18.6209431 7.86695469,18.5552544 8.02631579,18.5552544 C8.18567689,18.5552544 8.33799115,18.6209431 8.44736842,18.7368421 L12.2105263,23.9999996 C12.3201062,24.1378672 12.4822732,24.2237203 12.6578947,24.2368424 L17.2894737,24.2368424 C17.4950272,24.2236447 17.6780899,24.1022286 17.7702054,23.9179975 C17.862321,23.7337663 17.8496163,23.5144665 17.7368421,23.3421053 L11.8157895,15.2105263 C11.615188,15.0058718 11.615188,14.6783387 11.8157895,14.4736842 L17.6052632,8.68421053 C17.7610426,8.53289498 17.8137555,8.30436629 17.7399943,8.1001044 C17.6662331,7.89584251 17.4796731,7.7537179 17.2631579,7.73684211 Z" id="Path"></path>
                </g>
            </g>
        </g>
    </g>
</svg>